<svg width="118" height="36" viewBox="0 0 118 36" fill="none" xmlns="http://www.w3.org/2000/svg">
<path d="M5.48438 31.3203H21.6562V35H0.960938V0.875H5.48438V31.3203ZM51.4922 19.0391C51.4922 22.3828 50.9297 25.3047 49.8047 27.8047C48.6797 30.2891 47.0859 32.1875 45.0234 33.5C42.9609 34.8125 40.5547 35.4688 37.8047 35.4688C35.1172 35.4688 32.7344 34.8125 30.6562 33.5C28.5781 32.1719 26.9609 30.2891 25.8047 27.8516C24.6641 25.3984 24.0781 22.5625 24.0469 19.3438V16.8828C24.0469 13.6016 24.6172 10.7031 25.7578 8.1875C26.8984 5.67188 28.5078 3.75 30.5859 2.42188C32.6797 1.07813 35.0703 0.40625 37.7578 0.40625C40.4922 0.40625 42.8984 1.07031 44.9766 2.39844C47.0703 3.71094 48.6797 5.625 49.8047 8.14062C50.9297 10.6406 51.4922 13.5547 51.4922 16.8828V19.0391ZM47.0156 16.8359C47.0156 12.7891 46.2031 9.6875 44.5781 7.53125C42.9531 5.35937 40.6797 4.27344 37.7578 4.27344C34.9141 4.27344 32.6719 5.35937 31.0312 7.53125C29.4062 9.6875 28.5703 12.6875 28.5234 16.5312V19.0391C28.5234 22.9609 29.3438 26.0469 30.9844 28.2969C32.6406 30.5312 34.9141 31.6484 37.8047 31.6484C40.7109 31.6484 42.9609 30.5938 44.5547 28.4844C46.1484 26.3594 46.9688 23.3203 47.0156 19.3672V16.8359ZM83.4375 30.5234C82.2812 32.1797 80.6641 33.4219 78.5859 34.25C76.5234 35.0625 74.1172 35.4688 71.3672 35.4688C68.5859 35.4688 66.1172 34.8203 63.9609 33.5234C61.8047 32.2109 60.1328 30.3516 58.9453 27.9453C57.7734 25.5391 57.1719 22.75 57.1406 19.5781V16.6016C57.1406 11.4609 58.3359 7.47656 60.7266 4.64844C63.1328 1.82031 66.5078 0.40625 70.8516 0.40625C74.4141 0.40625 77.2812 1.32031 79.4531 3.14844C81.625 4.96094 82.9531 7.53906 83.4375 10.8828H78.9375C78.0938 6.36719 75.4062 4.10938 70.875 4.10938C67.8594 4.10938 65.5703 5.17187 64.0078 7.29688C62.4609 9.40625 61.6797 12.4688 61.6641 16.4844V19.2734C61.6641 23.1016 62.5391 26.1484 64.2891 28.4141C66.0391 30.6641 68.4062 31.7891 71.3906 31.7891C73.0781 31.7891 74.5547 31.6016 75.8203 31.2266C77.0859 30.8516 78.1328 30.2188 78.9609 29.3281V21.6641H71.0625V18.0078H83.4375V30.5234ZM117.211 19.0391C117.211 22.3828 116.648 25.3047 115.523 27.8047C114.398 30.2891 112.805 32.1875 110.742 33.5C108.68 34.8125 106.273 35.4688 103.523 35.4688C100.836 35.4688 98.4531 34.8125 96.375 33.5C94.2969 32.1719 92.6797 30.2891 91.5234 27.8516C90.3828 25.3984 89.7969 22.5625 89.7656 19.3438V16.8828C89.7656 13.6016 90.3359 10.7031 91.4766 8.1875C92.6172 5.67188 94.2266 3.75 96.3047 2.42188C98.3984 1.07813 100.789 0.40625 103.477 0.40625C106.211 0.40625 108.617 1.07031 110.695 2.39844C112.789 3.71094 114.398 5.625 115.523 8.14062C116.648 10.6406 117.211 13.5547 117.211 16.8828V19.0391ZM112.734 16.8359C112.734 12.7891 111.922 9.6875 110.297 7.53125C108.672 5.35937 106.398 4.27344 103.477 4.27344C100.633 4.27344 98.3906 5.35937 96.75 7.53125C95.125 9.6875 94.2891 12.6875 94.2422 16.5312V19.0391C94.2422 22.9609 95.0625 26.0469 96.7031 28.2969C98.3594 30.5312 100.633 31.6484 103.523 31.6484C106.43 31.6484 108.68 30.5938 110.273 28.4844C111.867 26.3594 112.688 23.3203 112.734 19.3672V16.8359Z" fill="black"/>
</svg>
